# xmcd
#
# Track frame offsets: 
#        188
#        13888
#        27688
#        41638
#        55663
#        68863
#        84763
#        96913
#        109438
#        120238
#        133363
#        151588
#        164938
#        177388
#
# Disc length: 2554 seconds
#
# Revision: 5
# Processed by: cddbd v1.5.2PL0 Copyright (c) Steve Scherf et al.
# Submitted via: ExactAudioCopy v0.99pb5
#
DISCID=c109f80e
DTITLE=Eartha Kitt - My Greatest Songs
DYEAR=1992
DGENRE=Jazz
TTITLE0=C'est Si Bon (sung in French)
TTITLE1=My Heart Belongs To Daddy
TTITLE2=Smoke Gets In Your Eyes
TTITLE3=Let's Do It
TTITLE4=Just An Old Fashioned Girl
TTITLE5=I Want To Be Evil
TTITLE6=Under The Bridges Of Paris
TTITLE7=St. Louis Blues
TTITLE8=Lazy Afternoon
TTITLE9=Johnny, wenn Du Geburtstag hast (sung in German)
TTITLE10=Thursday's Child
TTITLE11=Lullaby Of Birdland
TTITLE12=Après Moi (sung in French)
TTITLE13=Uska Dara - A Turkish Tale (sung in Turkish)
EXTD=RCA 74321 10731 2
EXTT0=
EXTT1=
EXTT2=
EXTT3=
EXTT4=
EXTT5=
EXTT6=
EXTT7=
EXTT8=
EXTT9=
EXTT10=
EXTT11=
EXTT12=
EXTT13=
PLAYORDER=
